HIERARCHY
ROOT Hips
{
	OFFSET 0.000000 0.000000 0.000000
	CHANNELS 6 Xposition Yposition Zposition Zrotation Yrotation Xrotation 
	JOINT LHipJoint
	{
		OFFSET 0.000000 0.000000 0.000000
		CHANNELS 3 Zrotation Yrotation Xrotation
		JOINT LeftUpLeg
		{
			OFFSET 1.363060 -1.794630 0.839290
			CHANNELS 3 Zrotation Yrotation Xrotation
			JOINT LeftLeg
			{
				OFFSET 2.448110 -6.726130 0.000000
				CHANNELS 3 Zrotation Yrotation Xrotation
				JOINT LeftFoot
				{
					OFFSET 2.562200 -7.039590 0.000000
					CHANNELS 3 Zrotation Yrotation Xrotation
					JOINT LeftToeBase
					{
						OFFSET 0.157640 -0.433110 2.322550
						CHANNELS 3 Zrotation Yrotation Xrotation
						End Site
						{
							OFFSET 0.000000 0.000000 0.000000
						}
					}
				}
			}
		}
	}
	JOINT RHipJoint
	{
		OFFSET 0.000000 0.000000 0.000000
		CHANNELS 3 Zrotation Yrotation Xrotation
		JOINT RightUpLeg
		{
			OFFSET -1.305520 -1.794630 0.839290
			CHANNELS 3 Zrotation Yrotation Xrotation
			JOINT RightLeg
			{
				OFFSET -2.542530 -6.985550 0.000000
				CHANNELS 3 Zrotation Yrotation Xrotation
				JOINT RightFoot
				{
					OFFSET -2.568260 -7.056230 0.000000
					CHANNELS 3 Zrotation Yrotation Xrotation
					JOINT RightToeBase
					{
						OFFSET -0.164730 -0.452590 2.363150
						CHANNELS 3 Zrotation Yrotation Xrotation
						End Site
						{
							OFFSET 0.000000 0.000000 0.000000
						}
					}
				}
			}
		}
	}
	JOINT LowerBack
	{
		OFFSET 0.000000 0.000000 0.000000
		CHANNELS 3 Zrotation Yrotation Xrotation
		JOINT Spine
		{
			OFFSET 0.028270 2.035590 -0.193380
			CHANNELS 3 Zrotation Yrotation Xrotation
			JOINT Spine1
			{
				OFFSET 0.056720 2.048850 -0.042750
				CHANNELS 3 Zrotation Yrotation Xrotation
				JOINT Neck
				{
					OFFSET 0.000000 0.000000 0.000000
					CHANNELS 3 Zrotation Yrotation Xrotation
					JOINT Neck1
					{
						OFFSET -0.054170 1.746240 0.172020
						CHANNELS 3 Zrotation Yrotation Xrotation
						JOINT Head
						{
							OFFSET 0.104070 1.761360 -0.123970
							CHANNELS 3 Zrotation Yrotation Xrotation
							End Site
							{
								OFFSET 0.000000 0.000000 0.000000
							}
						}
					}
				}
				JOINT LeftShoulder
				{
					OFFSET 0.000000 0.000000 0.000000
					CHANNELS 3 Zrotation Yrotation Xrotation
					JOINT LeftArm
					{
						OFFSET 3.362410 1.200890 -0.311210
						CHANNELS 3 Zrotation Yrotation Xrotation
						JOINT LeftForeArm
						{
							OFFSET 4.983000 -0.000000 -0.000000
							CHANNELS 3 Zrotation Yrotation Xrotation
							JOINT LeftHand
							{
								OFFSET 3.483560 -0.000000 -0.000000
								CHANNELS 3 Zrotation Yrotation Xrotation
								JOINT LeftFingerBase
								{
									OFFSET 0.000000 0.000000 0.000000
									CHANNELS 3 Zrotation Yrotation Xrotation
									JOINT LeftHandIndex1
									{
										OFFSET 0.715260 -0.000000 -0.000000
										CHANNELS 3 Zrotation Yrotation Xrotation
										End Site
										{
											OFFSET 0.000000 0.000000 0.000000
										}
									}
								}
								JOINT LThumb
								{
									OFFSET 0.000000 0.000000 0.000000
									CHANNELS 3 Zrotation Yrotation Xrotation
									End Site
									{
										OFFSET 0.000000 0.000000 0.000000
									}
								}
							}
						}
					}
				}
				JOINT RightShoulder
				{
					OFFSET 0.000000 0.000000 0.000000
					CHANNELS 3 Zrotation Yrotation Xrotation
					JOINT RightArm
					{
						OFFSET -3.136600 1.374050 -0.404650
						CHANNELS 3 Zrotation Yrotation Xrotation
						JOINT RightForeArm
						{
							OFFSET -5.241900 -0.000000 -0.000000
							CHANNELS 3 Zrotation Yrotation Xrotation
							JOINT RightHand
							{
								OFFSET -3.444170 -0.000000 -0.000000
								CHANNELS 3 Zrotation Yrotation Xrotation
								JOINT RightFingerBase
								{
									OFFSET 0.000000 0.000000 0.000000
									CHANNELS 3 Zrotation Yrotation Xrotation
									JOINT RightHandIndex1
									{
										OFFSET -0.622530 -0.000000 -0.000000
										CHANNELS 3 Zrotation Yrotation Xrotation
										End Site
										{
											OFFSET 0.000000 0.000000 0.000000
										}
									}
								}
								JOINT RThumb
								{
									OFFSET 0.000000 0.000000 0.000000
									CHANNELS 3 Zrotation Yrotation Xrotation
									End Site
									{
										OFFSET 0.000000 0.000000 0.000000
									}
								}
							}
						}
					}
				}
			}
		}
	}
}
MOTION
Frames: 9
Frame Time: 0.008333
10.456399 18.153940 6.657208 -0.956615 1.097565 7.445712 8.876616 6.049936 1.249793 -32.373458 -11.764765 -7.646157 -0.310934 6.539487 24.663387 -1.206019 7.578534 -9.210250 0.514680 -4.594918 -12.757264 -10.335965 -5.335544 1.357615 25.905513 15.245757 -37.516611 -4.744721 -17.035854 47.984857 1.591469 -9.845076 -1.160043 -0.632057 -5.086666 14.155875 0.004854 -1.163496 1.735774 1.778522 -1.778406 -2.975086 3.723976 -0.518880 -4.786081 -13.890811 -1.719150 -6.917847 5.571534 -1.480470 9.801549 6.866661 -1.093078 4.084134 4.828452 -6.935335 1.084383 -90.793067 0.538804 26.230539 17.978116 -26.224095 -4.420891 -0.007103 0.261836 21.253055 10.017074 20.766902 3.578123 -7.125000 0.000000 0.000000 -18.159510 49.898056 -2.260392 -5.043009 6.767911 1.051600 86.439091 -7.756528 19.640588 -10.993467 16.816905 -2.706299 -0.339290 -1.965767 5.044062 -18.705951 22.542409 -7.977919 7.125000 0.000000 0.000000 6.656702 -4.287551 6.182946
10.457131 18.148549 6.760840 -0.939450 1.181060 7.518715 8.861951 6.072093 1.260414 -32.421375 -11.762465 -7.102755 -0.366534 6.377313 24.325284 -1.241298 7.729717 -9.313361 0.553887 -4.765709 -13.241834 -10.320045 -5.309664 1.351865 25.736254 15.459655 -37.711520 -4.299013 -16.732206 46.525201 1.619010 -10.029963 -1.156250 -0.642278 -5.126856 14.270668 0.008769 -1.201037 1.769690 1.783447 -1.824009 -2.987373 3.735517 -0.547362 -4.834175 -13.889808 -1.717432 -6.935673 5.636618 -1.477167 9.759359 6.906370 -1.084525 4.071788 4.823173 -6.942081 1.085115 -90.571744 0.294273 26.494205 18.147288 -26.408637 -4.488599 0.003355 0.261491 21.333003 10.196369 20.473339 3.589440 -7.125000 0.000000 0.000000 -17.871401 49.640465 -2.105770 -5.050998 6.764352 1.053576 86.559293 -8.049125 19.484510 -10.975662 16.807746 -2.713143 -0.323891 -1.983639 5.047252 -19.029341 22.721148 -8.195408 7.125000 0.000000 0.000000 6.465933 -4.029656 6.033590
10.456954 18.144043 6.866190 -0.928407 1.263876 7.580195 8.845928 6.097085 1.271713 -32.456335 -11.731639 -6.549648 -0.420493 6.214167 23.990383 -1.269346 7.848935 -9.411233 0.586812 -4.903615 -13.634124 -10.300234 -5.285185 1.347549 25.565795 15.683668 -37.857319 -3.850804 -16.405422 45.036310 1.645263 -10.207302 -1.196279 -0.653397 -5.170359 14.395080 0.016109 -1.229986 1.804507 1.785958 -1.857196 -3.001690 3.718917 -0.570816 -4.895844 -13.781712 -1.715282 -6.937368 5.644962 -1.481594 9.726121 6.885050 -1.078642 4.057646 4.823718 -6.948801 1.085333 -90.320594 0.021139 26.784195 18.236638 -26.496284 -4.522016 0.010944 0.262277 21.472063 10.320881 20.207493 3.585500 -7.125000 0.000000 0.000000 -17.646002 49.400709 -1.970617 -5.054390 6.764522 1.056462 86.724755 -8.354165 19.198907 -10.942301 16.780315 -2.720917 -0.311705 -2.008198 5.123086 -19.416597 23.014467 -8.481313 7.125000 0.000000 0.000000 6.247389 -3.634559 5.873716
10.456263 18.142572 6.974917 -0.921825 1.392795 7.614510 8.824472 6.128233 1.280745 -32.460307 -11.598230 -5.982209 -0.472323 6.045566 23.656139 -1.237807 7.752558 -9.579439 0.566232 -4.816569 -13.386737 -10.271927 -5.264741 1.342004 25.381140 15.906905 -37.900612 -3.406604 -16.039637 43.513463 1.669616 -10.366953 -1.323142 -0.674594 -5.251258 14.626734 0.021067 -1.280262 1.809494 1.791706 -1.917871 -3.003995 3.699781 -0.609363 -4.901773 -13.629524 -1.699745 -6.932991 5.620912 -1.471160 9.685999 6.833534 -1.062875 4.026462 4.828230 -6.949332 1.090914 -90.071260 -0.270339 27.053399 18.366395 -26.637679 -4.576826 0.018430 0.264861 21.497397 10.545078 20.049141 3.633351 -7.125000 0.000000 0.000000 -17.373519 49.276210 -1.883871 -5.052947 6.760744 1.061269 86.889212 -8.614987 18.861994 -10.915946 16.760013 -2.725784 -0.314019 -2.022472 5.319392 -19.612627 23.263669 -8.659003 7.125000 0.000000 0.000000 6.149122 -3.327210 5.815753
10.455373 18.142276 7.084950 -0.916971 1.539561 7.638309 8.800913 6.161762 1.288900 -32.452284 -11.425113 -5.409224 -0.523329 5.874853 23.322149 -1.183202 7.572726 -9.774872 0.524941 -4.642446 -12.891733 -10.240332 -5.245857 1.335983 25.190990 16.129843 -37.904226 -2.963957 -15.658753 41.977473 1.693233 -10.519757 -1.483618 -0.699692 -5.346631 14.899901 0.025102 -1.338794 1.802934 1.798706 -1.989185 -3.001649 3.679664 -0.653752 -4.886126 -13.460267 -1.679025 -6.926264 5.584324 -1.454975 9.643212 6.770329 -1.043282 3.988679 4.834278 -6.947467 1.098570 -89.822627 -0.568917 27.314555 18.511793 -26.799879 -4.639916 0.025875 0.268141 21.478708 10.807863 19.932399 3.701252 -7.125000 0.000000 0.000000 -17.082810 49.196327 -1.815862 -5.049631 6.755439 1.066820 87.053280 -8.858692 18.505218 -10.892302 16.742470 -2.729527 -0.321946 -2.032765 5.562332 -19.734634 23.495794 -8.794804 7.125000 0.000000 0.000000 6.097414 -3.053827 5.797240
10.453660 18.137347 7.190867 -0.844516 1.557396 7.757835 8.784418 6.184221 1.292876 -32.531381 -11.275044 -4.894559 -0.595939 5.678922 22.887361 -1.167643 7.543819 -9.935893 0.498881 -4.527041 -12.564542 -10.220738 -5.213498 1.332537 24.870272 16.523121 -38.035837 -2.527650 -15.271884 40.413683 1.723251 -10.719779 -1.679932 -0.725915 -5.443270 15.177379 -0.074669 -1.363452 1.743876 1.802205 -2.021913 -3.006355 3.727844 -0.674528 -4.867463 -13.424209 -1.659501 -6.936284 5.610581 -1.431622 9.611830 6.774700 -1.024814 3.966127 4.834228 -6.948054 1.103381 -89.632505 -0.846365 27.505106 18.769384 -27.096866 -4.759677 0.032091 0.275315 21.132876 11.281556 20.020886 3.880356 -7.125000 0.000000 0.000000 -16.675790 49.342178 -1.829722 -5.050620 6.744472 1.068157 87.148239 -9.068124 18.324792 -10.860611 16.711500 -2.724209 -0.327023 -2.036853 5.600682 -19.726330 23.644556 -8.837490 7.125000 0.000000 0.000000 6.119420 -2.897599 5.836179
10.451819 18.131739 7.296153 -0.764487 1.554862 7.892905 8.768860 6.204966 1.296289 -32.620595 -11.130820 -4.388916 -0.672212 5.478604 22.435342 -1.158993 7.541310 -10.090787 0.475490 -4.422154 -12.267372 -10.203091 -5.179118 1.329574 24.532905 16.943043 -38.187793 -2.092754 -14.883969 38.846255 1.754529 -10.928624 -1.880710 -0.751422 -5.536840 15.446146 -0.187097 -1.382481 1.675665 1.805312 -2.048100 -3.012203 3.785833 -0.691425 -4.848116 -13.409639 -1.640736 -6.949262 5.646504 -1.407818 9.582394 6.789785 -1.006904 3.946258 4.833257 -6.949033 1.107741 -89.451361 -1.120712 27.685397 19.044956 -27.415293 -4.888552 0.038034 0.283074 20.734061 11.786979 20.143386 4.076935 -7.125000 0.000000 0.000000 -16.252449 49.525108 -1.857169 -5.052267 6.732571 1.068816 87.232459 -9.272474 18.172027 -10.827329 16.678159 -2.717453 -0.331508 -2.040085 5.606140 -19.699751 23.780988 -8.866944 7.125000 0.000000 0.000000 6.151690 -2.758469 5.883020
10.449744 18.127648 7.401088 -0.855073 1.501519 8.092318 8.744693 6.223552 1.304271 -32.512609 -11.135571 -3.894089 -0.772881 5.242743 21.860709 -1.212782 7.760387 -10.188397 0.474842 -4.419185 -12.259114 -10.193398 -5.146342 1.332484 24.396849 17.413022 -38.397949 -1.686407 -14.487365 37.315713 1.804063 -11.242611 -2.019489 -0.720603 -5.423331 15.120192 -0.102660 -1.370615 1.532209 1.817341 -2.030840 -3.022670 3.808382 -0.689595 -4.814367 -13.475767 -1.658701 -6.988628 5.690424 -1.424413 9.566507 6.833991 -1.013597 3.949982 4.832593 -6.951274 1.110898 -89.276401 -1.401781 27.894738 19.381010 -27.796064 -5.049930 0.038464 0.290426 20.123951 12.274373 20.447634 4.311402 -7.125000 0.000000 0.000000 -15.913756 49.886793 -1.958372 -5.054253 6.715967 1.067108 87.300781 -9.484401 18.076027 -10.770487 16.623695 -2.706682 -0.325966 -2.048793 5.494867 -19.768663 23.937952 -8.953628 7.125000 0.000000 0.000000 6.125242 -2.575872 5.877838
10.447901 18.124532 7.506882 -0.936126 1.467273 8.274936 8.720725 6.245406 1.312300 -32.408890 -11.111166 -3.378241 -0.874260 4.999806 21.273821 -1.257783 7.939668 -10.272981 0.469863 -4.395762 -12.193057 -10.180345 -5.116022 1.334581 24.255544 17.854796 -38.581226 -1.287298 -14.086778 35.796330 1.855253 -11.558964 -2.183030 -0.687287 -5.299128 14.763897 -0.020280 -1.365477 1.394622 1.826696 -2.021631 -3.030883 3.820200 -0.692508 -4.775819 -13.546616 -1.677115 -7.023417 5.743358 -1.442430 9.550525 6.885964 -1.020949 3.952775 4.830067 -6.953264 1.114667 -89.093702 -1.684505 28.085010 19.706728 -28.163183 -5.205942 0.037234 0.295251 19.587507 12.627126 20.741251 4.496084 -7.125000 0.000000 0.000000 -15.698929 50.220590 -2.065260 -5.059015 6.698773 1.065593 87.383501 -9.696836 17.959638 -10.713722 16.570214 -2.695838 -0.319716 -2.057164 5.411418 -19.853039 24.077886 -9.043299 7.125000 0.000000 0.000000 6.086783 -2.408142 5.859222
